<svg xmlns="http://www.w3.org/2000/svg" viewBox="0 0 116.08 37.17"><defs><style>.cls-1{fill:#f8eedd;}</style></defs><g id="Capa_2" data-name="Capa 2"><g id="Capa_1-2" data-name="Capa 1"><path class="cls-1" d="M79.85,6.5a10.58,10.58,0,0,1-2.34-3.33L69.93,5.54a13.5,13.5,0,0,0,2.45,3.29Z"/><path class="cls-1" d="M80.59,7.16,73.11,9.5c4.46,4.12,11.79,5.26,19.71,4.31a37.61,37.61,0,0,0,8.87-2.48C92.38,12.74,84.85,10.75,80.59,7.16Z"/><path class="cls-1" d="M87.72,0c4.46,8.42,14.58,9.63,23.77,8.3a39.51,39.51,0,0,1-8.85,2.48C93.79,11.92,84.54,10,80.2,2.34Z"/><path class="cls-1" d="M69.47,15,67,25.28H63.92L66.4,15Z"/><path class="cls-1" d="M78.57,20l-1.25,5.25h-3l1.25-5.21a.86.86,0,0,0-.37-.9,1.85,1.85,0,0,0-1.2-.38H72.71l-1.57,6.49H68.06l1.86-7.75h5.62a3.86,3.86,0,0,1,2.19.61,1.78,1.78,0,0,1,.89,1.51A1.58,1.58,0,0,1,78.57,20Z"/><path class="cls-1" d="M86.25,17.53l-.33,1.26H82.81l-.92,3.91a1.34,1.34,0,0,0,0,.2.9.9,0,0,0,.46.75,1.91,1.91,0,0,0,1.09.31h1.25l-.3,1.32H81.86a3.68,3.68,0,0,1-2.19-.62,1.85,1.85,0,0,1-.89-1.54,1.73,1.73,0,0,1,0-.38l1.57-6.51h3l-.31,1.3Z"/><path class="cls-1" d="M95.68,20.06,95,22.7H88.86a1.41,1.41,0,0,0,0,.18.9.9,0,0,0,.46.77,1.93,1.93,0,0,0,1.11.31h4.34l-.29,1.32H88.79a3.62,3.62,0,0,1-2.17-.63,1.86,1.86,0,0,1-.88-1.54,1.72,1.72,0,0,1,0-.39l.84-3.45a2,2,0,0,1,1-1.25,4,4,0,0,1,2-.49h3a3.72,3.72,0,0,1,2.18.64,1.86,1.86,0,0,1,.9,1.53A1.63,1.63,0,0,1,95.68,20.06Zm-3.08-.13c.08-.3-.06-.56-.4-.78A2.2,2.2,0,0,0,91,18.82a1.31,1.31,0,0,0-1.48,1l-.35,1.53h3.08Z"/><path class="cls-1" d="M103.49,17.53l-.3,1.26h-1.81c-.89,0-1.4.31-1.54.92l-1.26,5.57H95.51l1.41-6A1.88,1.88,0,0,1,98,18a4.07,4.07,0,0,1,2-.48Z"/><path class="cls-1" d="M26.36,17.52,24.47,26a2.11,2.11,0,0,1-1,1.29,3.36,3.36,0,0,1-1.86.5h-6.2l.27-1.29h4.54a1.69,1.69,0,0,0,1-.27,1,1,0,0,0,.48-.66l.05-.34H19.38a3.25,3.25,0,0,1-2-.61,1.84,1.84,0,0,1-.82-1.52,1.72,1.72,0,0,1,0-.39l.78-3.47a1.9,1.9,0,0,1,1-1.27,3.38,3.38,0,0,1,1.85-.49Zm-3.13,1.29h-1.7a1.62,1.62,0,0,0-.86.24,1,1,0,0,0-.49.58l-.71,3.06a.53.53,0,0,0,0,.2,1,1,0,0,0,.43.77,1.62,1.62,0,0,0,1,.32h1.18Z"/><path class="cls-1" d="M33.8,17.52l-.29,1.26H31.83c-.83,0-1.31.3-1.44.92l-1.16,5.57H26.36l1.32-6a1.88,1.88,0,0,1,1-1.23,3.65,3.65,0,0,1,1.85-.48Z"/><path class="cls-1" d="M43.3,17.52l-1.35,6a2.08,2.08,0,0,1-1,1.25,3.52,3.52,0,0,1-1.84.51H36.3a3.34,3.34,0,0,1-2-.61,1.83,1.83,0,0,1-.83-1.52,1.72,1.72,0,0,1,0-.37l1.16-5.25h2.88L36.4,22.69a.71.71,0,0,0,0,.2.91.91,0,0,0,.43.76,1.85,1.85,0,0,0,1.07.3q1.16,0,1.35-.9l1.19-5.53Z"/><path class="cls-1" d="M53.09,20l-.76,3.4a2.08,2.08,0,0,1-1,1.31,3.22,3.22,0,0,1-1.85.54H46.18l-.6,2.56H42.72L45,17.52h5.24a3.21,3.21,0,0,1,2,.63,1.85,1.85,0,0,1,.83,1.53A2.44,2.44,0,0,1,53.09,20Zm-2.85.05a1.21,1.21,0,0,1,0-.19.92.92,0,0,0-.44-.76,1.72,1.72,0,0,0-1-.31h-1.2L46.43,24H48.1c.82,0,1.3-.3,1.43-.92Z"/><path class="cls-1" d="M63.44,20l-.8,3.43a2.13,2.13,0,0,1-1,1.29,3.45,3.45,0,0,1-1.87.53H57a3.25,3.25,0,0,1-2-.63,1.84,1.84,0,0,1-.83-1.52,1.67,1.67,0,0,1,0-.39L55,19.2A1.83,1.83,0,0,1,56,18a3.61,3.61,0,0,1,1.83-.47h2.8a3.4,3.4,0,0,1,2,.61,1.85,1.85,0,0,1,.85,1.51A2.11,2.11,0,0,1,63.44,20Zm-2.86,0a.79.79,0,0,0-.36-.84,1.8,1.8,0,0,0-1.12-.35c-.77,0-1.21.3-1.34.89l-.66,3a.61.61,0,0,0-.06.21.86.86,0,0,0,.41.74,1.73,1.73,0,0,0,1,.29c.8,0,1.28-.31,1.43-.93Z"/><path class="cls-1" d="M0,35.42c0-1,1-1.74,2.35-1.74a2.15,2.15,0,0,1,1.84.82l-.81.31a1.27,1.27,0,0,0-1-.49c-.8,0-1.39.47-1.39,1.1s.59,1.11,1.39,1.11a1.27,1.27,0,0,0,1-.49l.81.3a2.15,2.15,0,0,1-1.84.83C1,37.17,0,36.46,0,35.42Z"/><path class="cls-1" d="M4.75,37.11V33.74H7.87v.63H5.69v.71H7.82v.63H5.69v.76H7.87v.64Z"/><path class="cls-1" d="M11.64,37.11l-2.1-2.2v2.2H8.6V33.74h1l2,2.11V33.74h.94v3.37Z"/><path class="cls-1" d="M14.44,37.11V34.37H13.15v-.63h3.51v.63H15.38v2.74Z"/><path class="cls-1" d="M19.75,37.11l-.86-1.2H18.2v1.2h-.94V33.74h2.06c.92,0,1.49.46,1.49,1.08a1.06,1.06,0,0,1-1,1l1,1.29Zm.1-2.29c0-.28-.29-.45-.66-.45h-1v.91h1C19.56,35.28,19.85,35.11,19.85,34.82Z"/><path class="cls-1" d="M21.3,35.42c0-1,1-1.74,2.31-1.74s2.29.73,2.29,1.74-1,1.75-2.29,1.75S21.3,36.44,21.3,35.42Zm3.64,0c0-.63-.52-1.1-1.33-1.1s-1.35.47-1.35,1.1.53,1.11,1.35,1.11A1.18,1.18,0,0,0,24.94,35.42Z"/><path class="cls-1" d="M28.26,37.11V33.74H30c1.38,0,2.34.67,2.34,1.68s-1,1.69-2.33,1.69Zm3.12-1.69c0-.59-.47-1.05-1.37-1.05H29.2v2.1H30C30.87,36.47,31.38,36,31.38,35.42Z"/><path class="cls-1" d="M33,37.11V33.74h3.11v.63H34v.71h2.13v.63H34v.76h2.17v.64Z"/><path class="cls-1" d="M38.25,36.63l.52-.56a2.23,2.23,0,0,0,1.4.46c.52,0,.76-.18.76-.37,0-.59-2.53-.18-2.53-1.45,0-.56.63-1,1.67-1a2.94,2.94,0,0,1,1.72.47l-.53.53A2.26,2.26,0,0,0,40,34.32c-.39,0-.62.13-.62.34,0,.53,2.53.17,2.53,1.43,0,.61-.58,1.08-1.76,1.08A3,3,0,0,1,38.25,36.63Z"/><path class="cls-1" d="M42.52,37.11V33.74h3.12v.63H43.46v.71h2.13v.63H43.46v.76h2.18v.64Z"/><path class="cls-1" d="M48.86,37.11,48,35.91h-.69v1.2h-.94V33.74h2.06c.92,0,1.49.46,1.49,1.08a1.06,1.06,0,0,1-1,1l1,1.29Zm.1-2.29c0-.28-.29-.45-.66-.45h-1v.91h1C48.67,35.28,49,35.11,49,34.82Z"/><path class="cls-1" d="M51.85,37.11l-1.69-3.37h1.06l1.22,2.58,1.23-2.58h1.06L53,37.11Z"/><path class="cls-1" d="M55.14,37.11V33.74h.94v3.37Z"/><path class="cls-1" d="M56.74,35.42c0-1,1-1.74,2.35-1.74a2.16,2.16,0,0,1,1.84.82l-.81.31a1.28,1.28,0,0,0-1-.49c-.81,0-1.39.47-1.39,1.1s.58,1.11,1.39,1.11a1.28,1.28,0,0,0,1-.49l.81.3a2.17,2.17,0,0,1-1.84.83C57.76,37.17,56.74,36.46,56.74,35.42Z"/><path class="cls-1" d="M61.49,37.11V33.74h.94v3.37Z"/><path class="cls-1" d="M63.09,35.42c0-1,1-1.74,2.3-1.74s2.3.73,2.3,1.74-1,1.75-2.3,1.75S63.09,36.44,63.09,35.42Zm3.64,0c0-.63-.53-1.1-1.34-1.1s-1.34.47-1.34,1.1.52,1.11,1.34,1.11A1.19,1.19,0,0,0,66.73,35.42Z"/><path class="cls-1" d="M68.05,36.63l.51-.56a2.25,2.25,0,0,0,1.4.46c.53,0,.77-.18.77-.37,0-.59-2.54-.18-2.54-1.45,0-.56.64-1,1.67-1a2.92,2.92,0,0,1,1.72.47l-.52.53a2.28,2.28,0,0,0-1.28-.37c-.4,0-.62.13-.62.34,0,.53,2.53.17,2.53,1.43,0,.61-.58,1.08-1.77,1.08A3,3,0,0,1,68.05,36.63Z"/><path class="cls-1" d="M77.06,37.11l-.28-.57H74.89l-.28.57H73.55l1.7-3.37h1.17l1.7,3.37Zm-1.22-2.66-.69,1.45h1.37Z"/><path class="cls-1" d="M78.53,35.76v-2h1v2c0,.47.36.79,1,.79s1-.32,1-.79v-2h1v2c0,.83-.65,1.41-2,1.41S78.53,36.59,78.53,35.76Z"/><path class="cls-1" d="M84.4,37.11V34.37H83.11v-.63h3.51v.63H85.34v2.74Z"/><path class="cls-1" d="M87,35.42c0-1,1-1.74,2.31-1.74s2.3.73,2.3,1.74-1,1.75-2.3,1.75S87,36.44,87,35.42Zm3.65,0c0-.63-.53-1.1-1.34-1.1S88,34.79,88,35.42s.52,1.11,1.34,1.11A1.19,1.19,0,0,0,90.66,35.42Z"/><path class="cls-1" d="M96.11,37.11V34.68l-1.24,2.43h-.41l-1.24-2.43v2.43h-.94V33.74h1.31l1.08,2.1,1.07-2.1h1.32v3.37Z"/><path class="cls-1" d="M97.72,35.42c0-1,1-1.74,2.3-1.74s2.3.73,2.3,1.74-1,1.75-2.3,1.75S97.72,36.44,97.72,35.42Zm3.64,0c0-.63-.52-1.1-1.34-1.1s-1.34.47-1.34,1.1.52,1.11,1.34,1.11S101.36,36.05,101.36,35.42Z"/><path class="cls-1" d="M104,37.11V34.37h-1.29v-.63h3.52v.63H105v2.74Z"/><path class="cls-1" d="M109.32,37.11l-.87-1.2h-.68v1.2h-.94V33.74h2.06c.92,0,1.49.46,1.49,1.08a1.06,1.06,0,0,1-1,1l1,1.29Zm.09-2.29c0-.28-.28-.45-.65-.45h-1v.91h1C109.13,35.28,109.41,35.11,109.41,34.82Z"/><path class="cls-1" d="M111.08,37.11V33.74H112v3.37Z"/><path class="cls-1" d="M112.73,37.11v-.59l2.08-2.15h-2.08v-.63H116v.57L114,36.47h2.12v.64Z"/></g></g></svg>