<svg xmlns="http://www.w3.org/2000/svg" viewBox="0 0 648.58 458.79"><defs><style>.cls-1{fill:#f4efde;}</style></defs><g id="Capa_2" data-name="Capa 2"><g id="Capa_1-2" data-name="Capa 1"><path class="cls-1" d="M10.42,206.83a6.91,6.91,0,0,1,6.93,6.92v44.68a.5.5,0,0,1-.52.52H11a.51.51,0,0,1-.53-.52V232.89H6.92v25.54a.5.5,0,0,1-.52.52H.52a.5.5,0,0,1-.52-.52V213.75a7,7,0,0,1,6.92-6.92ZM8.71,212a1.75,1.75,0,0,0-1.79,1.71v13.93h3.5V213.75A1.68,1.68,0,0,0,8.71,212Z"/><path class="cls-1" d="M27.48,206.83a.51.51,0,0,1,.52.52v46.39h6.48a.51.51,0,0,1,.52.52v4.17a.51.51,0,0,1-.52.52h-13a.07.07,0,0,1-.07-.07.42.42,0,0,1-.3-.45V207.35a.51.51,0,0,1,.52-.52Z"/><path class="cls-1" d="M44.08,206.83a.5.5,0,0,1,.52.52v51.08a.5.5,0,0,1-.52.52H38.2a.5.5,0,0,1-.52-.52V207.35a.5.5,0,0,1,.52-.52Z"/><path class="cls-1" d="M54.8,206.83a.5.5,0,0,1,.52.52l3.8,21.45-.3-21.45a.51.51,0,0,1,.53-.52h5.88a.5.5,0,0,1,.52.52v51.08a.5.5,0,0,1-.52.52h-6a.5.5,0,0,1-.45-.52L55.1,237l.22,21.44a.5.5,0,0,1-.52.52H48.92a.5.5,0,0,1-.52-.52V207.35a.5.5,0,0,1,.52-.52Z"/><path class="cls-1" d="M83,206.83a.5.5,0,0,1,.52.52v4.17A.5.5,0,0,1,83,212H76.47v15.64h4.69a.5.5,0,0,1,.52.52v4.17a.5.5,0,0,1-.52.52H76.47v20.85H83a.5.5,0,0,1,.52.52v4.17A.5.5,0,0,1,83,259H70c-.07,0-.15,0-.15-.07s-.07,0-.07-.08-.22-.14-.22-.29V207.28a.49.49,0,0,1,.52-.45Z"/><path class="cls-1" d="M95.91,206.83a6.91,6.91,0,0,1,6.92,6.92v44.68a.5.5,0,0,1-.52.52H96.43a.5.5,0,0,1-.52-.52V232.89h-3.5v25.54a.51.51,0,0,1-.52.52H86a.51.51,0,0,1-.52-.52V213.75a7,7,0,0,1,6.93-6.92ZM94.19,212a1.75,1.75,0,0,0-1.78,1.71v13.93h3.5V213.75A1.69,1.69,0,0,0,94.19,212Z"/><path class="cls-1" d="M116.76,206.83a6.91,6.91,0,0,1,6.92,6.92v13.41a.5.5,0,0,1-.52.52h-5.88a.5.5,0,0,1-.52-.52V213.75A1.69,1.69,0,0,0,115,212a1.78,1.78,0,0,0-1.78,1.64V252a1.74,1.74,0,0,0,1.78,1.71,1.69,1.69,0,0,0,1.72-1.71V233.41a.5.5,0,0,1,.52-.52h5.88a.5.5,0,0,1,.52.52V252a4.78,4.78,0,0,1-.15,1.41,6.87,6.87,0,0,1-6.77,5.51h-3.5a7,7,0,0,1-6.93-6.92V213.75a7,7,0,0,1,6.93-6.92Z"/><path class="cls-1" d="M133.58,206.83a.5.5,0,0,1,.52.52v51.08a.5.5,0,0,1-.52.52H127.7a.5.5,0,0,1-.52-.52V207.35a.5.5,0,0,1,.52-.52Z"/><path class="cls-1" d="M155,213.75V252a6.92,6.92,0,0,1-6.93,7h-3.5a7,7,0,0,1-6.92-7v-38.2a6.91,6.91,0,0,1,6.92-6.92h3.5A6.86,6.86,0,0,1,155,213.75Zm-6.93,0a1.68,1.68,0,0,0-1.71-1.71,1.75,1.75,0,0,0-1.79,1.71V252a1.81,1.81,0,0,0,1.79,1.79A1.75,1.75,0,0,0,148.1,252Zm-3.42-9.53,3.13-9.45a.65.65,0,0,1,.67-.45h4.17c.29,0,.44.15.37.45l-3.13,9.45a.79.79,0,0,1-.67.52h-4.17A.37.37,0,0,1,144.68,204.22Z"/><path class="cls-1" d="M165,206.83a.51.51,0,0,1,.52.52l3.8,21.45-.3-21.45a.5.5,0,0,1,.52-.52h5.88a.5.5,0,0,1,.52.52v51.08a.5.5,0,0,1-.52.52h-6a.49.49,0,0,1-.44-.52L165.3,237l.23,21.44a.51.51,0,0,1-.52.52h-5.89a.51.51,0,0,1-.52-.52V207.35a.51.51,0,0,1,.52-.52Z"/><path class="cls-1" d="M202.61,206.83a6.92,6.92,0,0,1,6.93,6.92v44.68a.51.51,0,0,1-.53.52h-5.88a.5.5,0,0,1-.52-.52V232.89h-3.5v25.54a.5.5,0,0,1-.52.52h-5.88a.5.5,0,0,1-.52-.52V213.75a7,7,0,0,1,6.92-6.92ZM200.9,212a1.75,1.75,0,0,0-1.79,1.71v13.93h3.5V213.75A1.68,1.68,0,0,0,200.9,212Z"/><path class="cls-1" d="M197.62,409.41v3.16c0,3.67.88,5.81,3,5.81s2.78-1.89,2.78-4.67c0-5.31-2.15-8.21-6.82-11.88-9.73-7.7-15.8-13.39-15.8-27.54,0-13.64,4.68-22.62,20-22.62,17.31,0,20.47,8,20.47,21.48v1.39h-16.8V372.4c0-4.3-.89-5.69-2.91-5.69s-2.65,1.77-2.65,5.05a10.75,10.75,0,0,0,4.93,9.73c9.73,7.08,18.32,12.26,18.32,28.05,0,13.14-3.41,23.63-21,23.63-17.81,0-21.1-9-21.1-22.24v-1.52Zm-3.29-52.68v-11H208v11Zm0,84.77v-10H208v10Z"/><path class="cls-1" d="M293.7,206.08a30.12,30.12,0,0,1,30.17,30.17V403a30.12,30.12,0,0,1-30.17,30.17H278.46A30.32,30.32,0,0,1,248.29,403V358.88a2.21,2.21,0,0,1,2.27-2.27h25.63a2.22,2.22,0,0,1,2.27,2.27V403a7.62,7.62,0,0,0,7.78,7.46A7.34,7.34,0,0,0,293.7,403V339.09a36.33,36.33,0,0,1-15.24,3.24,30.32,30.32,0,0,1-30.17-30.17V236.25a30.32,30.32,0,0,1,30.17-30.17Zm-7.46,22.71a7.62,7.62,0,0,0-7.78,7.46v75.91a7.62,7.62,0,0,0,7.78,7.46,7.34,7.34,0,0,0,7.46-7.46V236.25A7.34,7.34,0,0,0,286.24,228.79Z"/><path class="cls-1" d="M371.88,400.73v27.89a30.19,30.19,0,0,1-30.49,30.17h-7.47a2.22,2.22,0,0,1-2.27-2.27V438.36a2.44,2.44,0,0,1,2.27-2.27,7.35,7.35,0,0,0,7.47-7.47V400.73a2.21,2.21,0,0,1,2.27-2.27h25.95A2.44,2.44,0,0,1,371.88,400.73Z"/><path class="cls-1" d="M435.46,206.08a30.12,30.12,0,0,1,30.17,30.17V403a30.12,30.12,0,0,1-30.17,30.17H420.21A30.33,30.33,0,0,1,390,403V358.88a2.22,2.22,0,0,1,2.27-2.27h25.63a2.21,2.21,0,0,1,2.27,2.27V403a7.62,7.62,0,0,0,7.79,7.46,7.35,7.35,0,0,0,7.46-7.46V339.09a36.41,36.41,0,0,1-15.25,3.24A30.32,30.32,0,0,1,390,312.16V236.25a30.33,30.33,0,0,1,30.17-30.17ZM428,228.79a7.62,7.62,0,0,0-7.79,7.46v75.91a7.62,7.62,0,0,0,7.79,7.46,7.34,7.34,0,0,0,7.46-7.46V236.25A7.35,7.35,0,0,0,428,228.79Z"/><path class="cls-1" d="M526.93,206.08a30.12,30.12,0,0,1,30.17,30.17V403a30.12,30.12,0,0,1-30.17,30.17H511.69A30.32,30.32,0,0,1,481.52,403V236.25a30.32,30.32,0,0,1,30.17-30.17Zm-7.46,22.71a7.62,7.62,0,0,0-7.78,7.46V403a7.62,7.62,0,0,0,7.78,7.46,7.34,7.34,0,0,0,7.46-7.46V236.25A7.34,7.34,0,0,0,519.47,228.79Z"/><path class="cls-1" d="M618.41,206.08a30.12,30.12,0,0,1,30.17,30.17V403a30.12,30.12,0,0,1-30.17,30.17H603.17A30.32,30.32,0,0,1,573,403V236.25a30.32,30.32,0,0,1,30.17-30.17ZM611,228.79a7.62,7.62,0,0,0-7.78,7.46V403a7.62,7.62,0,0,0,7.78,7.46,7.34,7.34,0,0,0,7.46-7.46V236.25A7.34,7.34,0,0,0,611,228.79Z"/><path class="cls-1" d="M136.87,1.75v150A23.21,23.21,0,0,1,113.62,175H101.87a23.37,23.37,0,0,1-23.25-23.25V1.75A1.71,1.71,0,0,1,80.37,0h19.75a1.71,1.71,0,0,1,1.75,1.75v150a5.87,5.87,0,0,0,6,5.75,5.66,5.66,0,0,0,5.75-5.75V1.75A1.71,1.71,0,0,1,115.37,0h19.75A1.71,1.71,0,0,1,136.87,1.75Z"/><path class="cls-1" d="M172.12,0a1.71,1.71,0,0,1,1.75,1.75l12.75,72-1-72A1.71,1.71,0,0,1,187.37,0h19.75a1.71,1.71,0,0,1,1.75,1.75v171.5a1.71,1.71,0,0,1-1.75,1.75h-20a1.67,1.67,0,0,1-1.5-1.75l-12.5-72,.75,72a1.71,1.71,0,0,1-1.75,1.75H152.37a1.71,1.71,0,0,1-1.75-1.75V1.75A1.71,1.71,0,0,1,152.37,0Z"/><path class="cls-1" d="M287.62,0a1.71,1.71,0,0,1,1.75,1.75V70h11.75V1.75A1.71,1.71,0,0,1,302.87,0h19.75a1.71,1.71,0,0,1,1.75,1.75v171.5a1.71,1.71,0,0,1-1.75,1.75H302.87a1.71,1.71,0,0,1-1.75-1.75V87.5H289.37v85.75a1.71,1.71,0,0,1-1.75,1.75H267.87a1.71,1.71,0,0,1-1.75-1.75V1.75A1.71,1.71,0,0,1,267.87,0Z"/><path class="cls-1" d="M396.37,1.75v150A23.21,23.21,0,0,1,373.12,175H361.37a23.37,23.37,0,0,1-23.25-23.25V1.75A1.71,1.71,0,0,1,339.87,0h19.75a1.71,1.71,0,0,1,1.75,1.75v150a5.87,5.87,0,0,0,6,5.75,5.66,5.66,0,0,0,5.75-5.75V1.75A1.71,1.71,0,0,1,374.87,0h19.75A1.71,1.71,0,0,1,396.37,1.75Z"/><path class="cls-1" d="M455.12,0a1.71,1.71,0,0,1,1.75,1.75v14a1.71,1.71,0,0,1-1.75,1.75H433.37V70h15.75a1.71,1.71,0,0,1,1.75,1.75v14a1.71,1.71,0,0,1-1.75,1.75H433.37v70h21.75a1.71,1.71,0,0,1,1.75,1.75v14a1.71,1.71,0,0,1-1.75,1.75h-43.5c-.25,0-.5,0-.5-.25-.25,0-.25,0-.25-.25-.5-.25-.75-.5-.75-1V1.5A1.67,1.67,0,0,1,411.87,0Z"/><path class="cls-1" d="M499.37,0a23.21,23.21,0,0,1,23.25,23.25v45A1.71,1.71,0,0,1,520.87,70H501.12a1.71,1.71,0,0,1-1.75-1.75v-45a5.66,5.66,0,0,0-5.75-5.75,6,6,0,0,0-6,5.5V151.75a5.87,5.87,0,0,0,6,5.75,5.66,5.66,0,0,0,5.75-5.75V89.25a1.71,1.71,0,0,1,1.75-1.75h19.75a1.71,1.71,0,0,1,1.75,1.75v62.5a16.19,16.19,0,0,1-.5,4.75A23.12,23.12,0,0,1,499.37,175H487.62a23.37,23.37,0,0,1-23.25-23.25V23.25A23.37,23.37,0,0,1,487.62,0Z"/><path class="cls-1" d="M569.86,0a23.21,23.21,0,0,1,23.25,23.25v128.5A23.21,23.21,0,0,1,569.86,175H558.11a23.37,23.37,0,0,1-23.25-23.25V23.25A23.37,23.37,0,0,1,558.11,0Zm-5.75,17.5a5.87,5.87,0,0,0-6,5.75v128.5a5.87,5.87,0,0,0,6,5.75,5.66,5.66,0,0,0,5.75-5.75V23.25A5.66,5.66,0,0,0,564.11,17.5Z"/><path class="cls-1" d="M630.86,150v21.5a23.26,23.26,0,0,1-23.5,23.25h-5.75a1.71,1.71,0,0,1-1.75-1.75V179a1.88,1.88,0,0,1,1.75-1.75,5.66,5.66,0,0,0,5.75-5.75V150a1.71,1.71,0,0,1,1.75-1.75h20A1.88,1.88,0,0,1,630.86,150Z"/></g></g></svg>