<svg xmlns="http://www.w3.org/2000/svg" viewBox="0 0 659.82 458.79"><defs><style>.cls-1{fill:#f4efde;}</style></defs><g id="Capa_2" data-name="Capa 2"><g id="Capa_1-2" data-name="Capa 1"><path class="cls-1" d="M55.18,258.43a.5.5,0,0,0,.52.52h5.88a.5.5,0,0,0,.52-.52V213.76a6.91,6.91,0,0,0-6.92-6.93h-3.5a7,7,0,0,0-6.93,6.93v44.67a.5.5,0,0,0,.52.52h5.88a.51.51,0,0,0,.53-.52V232.89h3.5Zm-3.5-30.75V213.76A1.75,1.75,0,0,1,53.46,212a1.69,1.69,0,0,1,1.72,1.72v13.92Z"/><path class="cls-1" d="M66.12,258.88c0,.07.08.07.08.07h13a.51.51,0,0,0,.52-.52v-4.17a.51.51,0,0,0-.52-.52H72.75V207.35a.51.51,0,0,0-.52-.52H66.35a.52.52,0,0,0-.53.52v51.08A.42.42,0,0,0,66.12,258.88Z"/><rect class="cls-1" x="82.43" y="206.83" width="6.92" height="52.12" rx="0.52"/><path class="cls-1" d="M110,206.83H104.1a.51.51,0,0,0-.52.52l.29,21.45-3.79-21.45a.52.52,0,0,0-.53-.52H93.67a.51.51,0,0,0-.52.52v51.08a.5.5,0,0,0,.52.52h5.88a.51.51,0,0,0,.53-.52L99.85,237l3.73,21.44a.49.49,0,0,0,.44.52h6a.5.5,0,0,0,.52-.52V207.35A.51.51,0,0,0,110,206.83Z"/><path class="cls-1" d="M127.7,212a.5.5,0,0,0,.52-.52v-4.17a.51.51,0,0,0-.52-.52H114.82a.5.5,0,0,0-.52.45v51.23c0,.15.07.22.22.29s0,.08.08.08.07.07.15.07h13a.5.5,0,0,0,.52-.52v-4.17a.5.5,0,0,0-.52-.52h-6.48V232.89h4.69a.5.5,0,0,0,.52-.52V228.2a.5.5,0,0,0-.52-.52h-4.69V212Z"/><path class="cls-1" d="M137.16,258.43V232.89h3.5v25.54a.5.5,0,0,0,.52.52h5.88a.5.5,0,0,0,.52-.52V213.76a6.91,6.91,0,0,0-6.92-6.93h-3.5a7,7,0,0,0-6.93,6.93v44.67a.51.51,0,0,0,.52.52h5.89A.51.51,0,0,0,137.16,258.43Zm0-44.67a1.75,1.75,0,0,1,1.78-1.72,1.69,1.69,0,0,1,1.72,1.72v13.92h-3.5Z"/><path class="cls-1" d="M161.51,206.83H158a7,7,0,0,0-6.93,6.93V252A7,7,0,0,0,158,259h3.5a6.87,6.87,0,0,0,6.77-5.51,4.74,4.74,0,0,0,.15-1.41V233.41a.51.51,0,0,0-.52-.52H162a.51.51,0,0,0-.52.52V252a1.69,1.69,0,0,1-1.72,1.71A1.74,1.74,0,0,1,158,252V213.68a1.79,1.79,0,0,1,1.78-1.64,1.69,1.69,0,0,1,1.72,1.72v13.4a.5.5,0,0,0,.52.52h5.88a.5.5,0,0,0,.52-.52v-13.4A6.91,6.91,0,0,0,161.51,206.83Z"/><rect class="cls-1" x="171.93" y="206.83" width="6.92" height="52.12" rx="0.52"/><path class="cls-1" d="M193.23,194.32a.65.65,0,0,0-.67.45l-3.13,9.46c-.07.29.07.52.37.52H194a.81.81,0,0,0,.67-.52l3.13-9.46c.07-.3-.08-.45-.37-.45Z"/><path class="cls-1" d="M199.78,252V213.76a6.87,6.87,0,0,0-6.93-6.93h-3.49a6.92,6.92,0,0,0-6.93,6.93V252a7,7,0,0,0,6.93,7h3.49A6.92,6.92,0,0,0,199.78,252Zm-8.64,1.79a1.81,1.81,0,0,1-1.78-1.79V213.76a1.75,1.75,0,0,1,1.78-1.72,1.69,1.69,0,0,1,1.71,1.72V252A1.75,1.75,0,0,1,191.14,253.74Z"/><path class="cls-1" d="M213.78,207.35l.3,21.45-3.8-21.45a.51.51,0,0,0-.52-.52h-5.88a.52.52,0,0,0-.53.52v51.08a.51.51,0,0,0,.53.52h5.88a.5.5,0,0,0,.52-.52L210.06,237l3.72,21.44a.49.49,0,0,0,.45.52h6a.5.5,0,0,0,.52-.52V207.35a.51.51,0,0,0-.52-.52H214.3A.51.51,0,0,0,213.78,207.35Z"/><path class="cls-1" d="M16.83,278.08H11a.52.52,0,0,0-.53.52L8.93,296.55a12.69,12.69,0,0,1-.22,1.71c-.15,0-.07-.74-.22-1.71L6.92,278.6a.51.51,0,0,0-.52-.52H.52a.51.51,0,0,0-.52.52l2.83,21.52c.37,2.46,1.19,3.72,2.38,4.25v25.31a.51.51,0,0,0,.52.52h5.89a.51.51,0,0,0,.52-.52V304.37c1.26-.53,2-1.79,2.38-4.25l2.83-21.52A.51.51,0,0,0,16.83,278.08Z"/><path class="cls-1" d="M43.41,278.08h-9.9a.51.51,0,0,0-.52.52v51.08a.5.5,0,0,0,.52.52h9.9a6.91,6.91,0,0,0,6.93-6.92V305.86a6.8,6.8,0,0,0-1.49-4.32,6.82,6.82,0,0,0,1.49-4.32V285A6.92,6.92,0,0,0,43.41,278.08Zm0,45.2A1.68,1.68,0,0,1,41.7,325H39.91V304.14H41.7a1.69,1.69,0,0,1,1.71,1.72Zm0-26.06a1.68,1.68,0,0,1-1.71,1.71H39.91V283.29H41.7A1.69,1.69,0,0,1,43.41,285Z"/><path class="cls-1" d="M64.26,278.08h-3.5A7,7,0,0,0,53.84,285v44.67a.5.5,0,0,0,.52.52h5.88a.5.5,0,0,0,.52-.52V304.14h3.5v25.54a.5.5,0,0,0,.52.52h5.88a.5.5,0,0,0,.52-.52V285A6.91,6.91,0,0,0,64.26,278.08Zm0,20.85h-3.5V285a1.75,1.75,0,0,1,1.79-1.72A1.69,1.69,0,0,1,64.26,285Z"/><path class="cls-1" d="M88.31,325H81.83V278.6a.51.51,0,0,0-.52-.52H75.43a.51.51,0,0,0-.52.52v51.08a.41.41,0,0,0,.3.45.07.07,0,0,0,.07.07h13a.5.5,0,0,0,.52-.52v-4.17A.5.5,0,0,0,88.31,325Z"/><path class="cls-1" d="M101.86,278.08h-3.5A7,7,0,0,0,91.44,285v44.67a.5.5,0,0,0,.52.52h5.88a.5.5,0,0,0,.52-.52V304.14h3.5v25.54a.51.51,0,0,0,.52.52h5.89a.51.51,0,0,0,.52-.52V285A6.92,6.92,0,0,0,101.86,278.08Zm0,20.85h-3.5V285a1.75,1.75,0,0,1,1.79-1.72,1.69,1.69,0,0,1,1.71,1.72Z"/><path class="cls-1" d="M129.34,278.08h-5.88a.51.51,0,0,0-.52.52l.29,21.45-3.79-21.45a.52.52,0,0,0-.53-.52H113a.51.51,0,0,0-.52.52v51.08a.5.5,0,0,0,.52.52h5.88a.51.51,0,0,0,.53-.52l-.23-21.44,3.73,21.44a.49.49,0,0,0,.44.52h6a.5.5,0,0,0,.52-.52V278.6A.51.51,0,0,0,129.34,278.08Z"/><path class="cls-1" d="M143.86,278.08h-3.5a7,7,0,0,0-6.93,6.93v38.27a7,7,0,0,0,6.93,6.92h3.5a6.87,6.87,0,0,0,6.77-5.51,4.74,4.74,0,0,0,.15-1.41V304.66a.51.51,0,0,0-.52-.52h-5.88a.51.51,0,0,0-.52.52v18.62a1.68,1.68,0,0,1-1.71,1.71,1.75,1.75,0,0,1-1.79-1.71V284.93a1.79,1.79,0,0,1,1.79-1.64,1.69,1.69,0,0,1,1.71,1.72v13.4a.5.5,0,0,0,.52.52h5.88a.5.5,0,0,0,.52-.52V285A6.91,6.91,0,0,0,143.86,278.08Z"/><path class="cls-1" d="M167.69,278.08H154.8a.51.51,0,0,0-.52.45v51.23c0,.15.08.22.23.29s0,.08.07.08.08.07.15.07h13a.51.51,0,0,0,.52-.52v-4.17a.51.51,0,0,0-.52-.52h-6.48V304.14h4.69a.5.5,0,0,0,.52-.52v-4.17a.5.5,0,0,0-.52-.52h-4.69V283.29h6.48a.51.51,0,0,0,.52-.52V278.6A.52.52,0,0,0,167.69,278.08Z"/><path class="cls-1" d="M180.49,278.08H177a7,7,0,0,0-6.92,6.93v38.27A7,7,0,0,0,177,330.2h3.5a6.91,6.91,0,0,0,6.93-6.92V285A6.91,6.91,0,0,0,180.49,278.08Zm0,45.2a1.68,1.68,0,0,1-1.71,1.71,1.75,1.75,0,0,1-1.79-1.71V285a1.75,1.75,0,0,1,1.79-1.72,1.69,1.69,0,0,1,1.71,1.72Z"/><path class="cls-1" d="M214.37,330.2h5.89a.51.51,0,0,0,.52-.52V285a6.92,6.92,0,0,0-6.93-6.93h-3.5a7,7,0,0,0-6.92,6.93v44.67a.5.5,0,0,0,.52.52h5.88a.5.5,0,0,0,.52-.52V304.14h3.5v25.54A.51.51,0,0,0,214.37,330.2Zm-4-31.27V285a1.75,1.75,0,0,1,1.79-1.72,1.69,1.69,0,0,1,1.71,1.72v13.92Z"/><path class="cls-1" d="M215.05,381.49a10.77,10.77,0,0,1-4.93-9.73c0-3.28.64-5.05,2.66-5.05s2.9,1.39,2.9,5.68v2.15h16.81v-1.39c0-11.38-2.24-18.82-13.27-20.89v-6.53H205.58v6.59c-10.2,2.29-13.52,10.47-13.52,22,0,14.15,6.06,19.83,15.79,27.54,4.67,3.67,6.82,6.57,6.82,11.88,0,2.78-.63,4.67-2.78,4.67s-3-2.14-3-5.81v-3.16H191.3v1.52c0,11.35,2.41,19.56,14.28,21.69v8.89h13.64v-9c11.66-2.47,14.15-11.75,14.15-23C233.37,393.75,224.78,388.57,215.05,381.49Z"/><path class="cls-1" d="M305,206.09H289.7a30.32,30.32,0,0,0-30.17,30.17v75.91a30.33,30.33,0,0,0,30.17,30.17A36.41,36.41,0,0,0,305,339.09V403a7.35,7.35,0,0,1-7.47,7.46A7.62,7.62,0,0,1,289.7,403V358.88a2.21,2.21,0,0,0-2.27-2.27H261.8a2.21,2.21,0,0,0-2.27,2.27V403a30.33,30.33,0,0,0,30.17,30.17H305A30.11,30.11,0,0,0,335.11,403V236.26A30.11,30.11,0,0,0,305,206.09Zm0,106.08a7.35,7.35,0,0,1-7.47,7.46,7.62,7.62,0,0,1-7.78-7.46V236.26a7.62,7.62,0,0,1,7.78-7.46,7.34,7.34,0,0,1,7.47,7.46Z"/><path class="cls-1" d="M380.85,398.46h-26a2.21,2.21,0,0,0-2.27,2.27v27.89a7.35,7.35,0,0,1-7.46,7.47,2.43,2.43,0,0,0-2.27,2.27v18.16a2.21,2.21,0,0,0,2.27,2.27h7.46a30.18,30.18,0,0,0,30.49-30.17V400.73A2.44,2.44,0,0,0,380.85,398.46Z"/><path class="cls-1" d="M446.7,206.09H431.45a30.32,30.32,0,0,0-30.17,30.17v75.91a30.33,30.33,0,0,0,30.17,30.17,36.41,36.41,0,0,0,15.25-3.25V403a7.34,7.34,0,0,1-7.46,7.46,7.62,7.62,0,0,1-7.79-7.46V358.88a2.21,2.21,0,0,0-2.27-2.27H403.56a2.22,2.22,0,0,0-2.28,2.27V403a30.33,30.33,0,0,0,30.17,30.17H446.7A30.12,30.12,0,0,0,476.87,403V236.26A30.11,30.11,0,0,0,446.7,206.09Zm0,106.08a7.34,7.34,0,0,1-7.46,7.46,7.62,7.62,0,0,1-7.79-7.46V236.26a7.62,7.62,0,0,1,7.79-7.46,7.34,7.34,0,0,1,7.46,7.46Z"/><path class="cls-1" d="M538.18,206.09H522.93a30.32,30.32,0,0,0-30.17,30.17V403a30.33,30.33,0,0,0,30.17,30.17h15.25A30.11,30.11,0,0,0,568.34,403V236.26A30.11,30.11,0,0,0,538.18,206.09Zm0,196.91a7.35,7.35,0,0,1-7.47,7.46,7.62,7.62,0,0,1-7.78-7.46V236.26a7.62,7.62,0,0,1,7.78-7.46,7.34,7.34,0,0,1,7.47,7.46Z"/><path class="cls-1" d="M629.65,206.09H614.41a30.32,30.32,0,0,0-30.17,30.17V403a30.32,30.32,0,0,0,30.17,30.17h15.24A30.12,30.12,0,0,0,659.82,403V236.26A30.11,30.11,0,0,0,629.65,206.09Zm0,196.91a7.34,7.34,0,0,1-7.46,7.46,7.62,7.62,0,0,1-7.78-7.46V236.26a7.62,7.62,0,0,1,7.78-7.46,7.34,7.34,0,0,1,7.46,7.46Z"/><path class="cls-1" d="M113.12,175h11.75a23.21,23.21,0,0,0,23.25-23.25V1.75A1.71,1.71,0,0,0,146.37,0H126.62a1.71,1.71,0,0,0-1.75,1.75v150a5.66,5.66,0,0,1-5.75,5.75,5.87,5.87,0,0,1-6-5.75V1.75A1.71,1.71,0,0,0,111.37,0H91.62a1.71,1.71,0,0,0-1.75,1.75v150A23.37,23.37,0,0,0,113.12,175Z"/><path class="cls-1" d="M163.62,175h19.75a1.71,1.71,0,0,0,1.75-1.75l-.75-72,12.5,72a1.67,1.67,0,0,0,1.5,1.75h20a1.71,1.71,0,0,0,1.75-1.75V1.75A1.71,1.71,0,0,0,218.37,0H198.62a1.71,1.71,0,0,0-1.75,1.75l1,72-12.75-72A1.71,1.71,0,0,0,183.37,0H163.62a1.71,1.71,0,0,0-1.75,1.75v171.5A1.71,1.71,0,0,0,163.62,175Z"/><path class="cls-1" d="M333.86,0H314.11a1.71,1.71,0,0,0-1.75,1.75V70H300.61V1.75A1.71,1.71,0,0,0,298.86,0H279.11a1.71,1.71,0,0,0-1.75,1.75v171.5a1.71,1.71,0,0,0,1.75,1.75h19.75a1.71,1.71,0,0,0,1.75-1.75V87.5h11.75v85.75a1.71,1.71,0,0,0,1.75,1.75h19.75a1.71,1.71,0,0,0,1.75-1.75V1.75A1.71,1.71,0,0,0,333.86,0Z"/><path class="cls-1" d="M407.61,1.75A1.71,1.71,0,0,0,405.86,0H386.11a1.71,1.71,0,0,0-1.75,1.75v150a5.66,5.66,0,0,1-5.75,5.75,5.87,5.87,0,0,1-6-5.75V1.75A1.71,1.71,0,0,0,370.86,0H351.11a1.71,1.71,0,0,0-1.75,1.75v150A23.37,23.37,0,0,0,372.61,175h11.75a23.21,23.21,0,0,0,23.25-23.25Z"/><path class="cls-1" d="M422.11,174.5c0,.25,0,.25.25.25,0,.25.25.25.5.25h43.5a1.71,1.71,0,0,0,1.75-1.75v-14a1.71,1.71,0,0,0-1.75-1.75H444.61v-70h15.75a1.71,1.71,0,0,0,1.75-1.75v-14A1.71,1.71,0,0,0,460.36,70H444.61V17.5h21.75a1.71,1.71,0,0,0,1.75-1.75v-14A1.71,1.71,0,0,0,466.36,0H423.11a1.67,1.67,0,0,0-1.75,1.5v172C421.36,174,421.61,174.25,422.11,174.5Z"/><path class="cls-1" d="M510.61,175a23.12,23.12,0,0,0,22.75-18.5,16.19,16.19,0,0,0,.5-4.75V89.25a1.71,1.71,0,0,0-1.75-1.75H512.36a1.71,1.71,0,0,0-1.75,1.75v62.5a5.66,5.66,0,0,1-5.75,5.75,5.87,5.87,0,0,1-6-5.75V23a6,6,0,0,1,6-5.5,5.66,5.66,0,0,1,5.75,5.75v45A1.71,1.71,0,0,0,512.36,70h19.75a1.71,1.71,0,0,0,1.75-1.75v-45A23.21,23.21,0,0,0,510.61,0H498.86a23.37,23.37,0,0,0-23.25,23.25v128.5A23.37,23.37,0,0,0,498.86,175Z"/><path class="cls-1" d="M604.36,151.75V23.25A23.21,23.21,0,0,0,581.11,0H569.36a23.37,23.37,0,0,0-23.25,23.25v128.5A23.37,23.37,0,0,0,569.36,175h11.75A23.21,23.21,0,0,0,604.36,151.75Zm-23.25,0a5.66,5.66,0,0,1-5.75,5.75,5.87,5.87,0,0,1-6-5.75V23.25a5.87,5.87,0,0,1,6-5.75,5.66,5.66,0,0,1,5.75,5.75Z"/><path class="cls-1" d="M612.86,194.75h5.75a23.26,23.26,0,0,0,23.5-23.25V150a1.88,1.88,0,0,0-1.75-1.75h-20a1.71,1.71,0,0,0-1.75,1.75v21.5a5.66,5.66,0,0,1-5.75,5.75,1.88,1.88,0,0,0-1.75,1.75v14A1.71,1.71,0,0,0,612.86,194.75Z"/></g></g></svg>