<svg id="Grupo_74" data-name="Grupo 74" xmlns="http://www.w3.org/2000/svg" xmlns:xlink="http://www.w3.org/1999/xlink" width="184.249" height="64.38" viewBox="0 0 184.249 64.38">
  <defs>
    <clipPath id="clip-path">
      <rect id="Rectángulo_1" data-name="Rectángulo 1" width="184.249" height="64.38" fill="#fff"/>
    </clipPath>
  </defs>
  <path id="Trazado_1" data-name="Trazado 1" d="M277.467,81.967,272.55,102.5h-6.112l4.923-20.531Z" transform="translate(-170.893 -52.573)" fill="#fff"/>
  <g id="Grupo_2" data-name="Grupo 2">
    <g id="Grupo_1" data-name="Grupo 1" clip-path="url(#clip-path)">
      <path id="Trazado_2" data-name="Trazado 2" d="M310.306,101.223l-2.475,10.437h-6.064l2.472-10.371a1.682,1.682,0,0,0-.728-1.776,3.685,3.685,0,0,0-2.385-.763h-2.46l-3.131,12.911h-6.111l3.68-15.408h11.184a7.615,7.615,0,0,1,4.345,1.2,3.568,3.568,0,0,1,1.77,3.011,2.95,2.95,0,0,1-.1.764" transform="translate(-185.637 -61.736)" fill="#fff"/>
      <path id="Trazado_3" data-name="Trazado 3" d="M363.674,91.6l-.654,2.5h-6.2l-1.829,7.782c-.005.134-.005.254-.005.382a1.8,1.8,0,0,0,.916,1.5,3.757,3.757,0,0,0,2.163.616h2.481l-.6,2.631h-5.018a7.359,7.359,0,0,1-4.345-1.249,3.65,3.65,0,0,1-1.774-3.044,3.092,3.092,0,0,1,.1-.775l3.125-12.938H358.1l-.624,2.6Z" transform="translate(-223.729 -57.088)" fill="#fff"/>
      <path id="Trazado_4" data-name="Trazado 4" d="M407.155,101.266l-1.273,5.268H393.595a1.486,1.486,0,0,0-.043.354,1.813,1.813,0,0,0,.913,1.524,3.881,3.881,0,0,0,2.212.616h8.616l-.571,2.631H393.449a7.115,7.115,0,0,1-4.312-1.266,3.69,3.69,0,0,1-1.756-3.059,3.09,3.09,0,0,1,.095-.773l1.662-6.858a3.891,3.891,0,0,1,2.083-2.476,7.854,7.854,0,0,1,3.938-.976h5.97a7.317,7.317,0,0,1,4.335,1.266,3.694,3.694,0,0,1,1.786,3.036,3.067,3.067,0,0,1-.093.713m-6.135-.248c.16-.592-.108-1.1-.8-1.545a4.312,4.312,0,0,0-2.362-.665c-1.665,0-2.64.691-2.947,2.055l-.687,3.044h6.118Z" transform="translate(-248.465 -61.736)" fill="#fff"/>
      <path id="Trazado_5" data-name="Trazado 5" d="M457.42,96.252l-.6,2.5h-3.61q-2.64,0-3.062,1.824l-2.5,11.087h-6.1l2.814-12.012a3.74,3.74,0,0,1,2.091-2.442,8.145,8.145,0,0,1,3.928-.955Z" transform="translate(-283.21 -61.736)" fill="#fff"/>
      <path id="Trazado_6" data-name="Trazado 6" d="M27.194,96.322,23.4,113.394a4.133,4.133,0,0,1-1.941,2.581,6.7,6.7,0,0,1-3.725,1.017H5.3l.553-2.589h9.1a3.48,3.48,0,0,0,1.936-.542,1.922,1.922,0,0,0,.955-1.32l.118-.677H13.2a6.517,6.517,0,0,1-4.056-1.243A3.668,3.668,0,0,1,7.5,107.586a4.3,4.3,0,0,1,.074-.788l1.568-6.953A3.9,3.9,0,0,1,11.089,97.3a6.951,6.951,0,0,1,3.719-.976ZM20.932,98.9H17.521a3.5,3.5,0,0,0-1.743.474,2.014,2.014,0,0,0-.969,1.182l-1.426,6.127a1.161,1.161,0,0,0-.1.4,1.9,1.9,0,0,0,.864,1.553,3.3,3.3,0,0,0,2.049.645h2.384Z" transform="translate(-3.398 -61.781)" fill="#fff"/>
      <path id="Trazado_7" data-name="Trazado 7" d="M79.871,96.322l-.577,2.505H75.915c-1.655,0-2.612.626-2.866,1.857l-2.337,11.18H64.956L67.6,99.744a3.731,3.731,0,0,1,1.966-2.465,7.345,7.345,0,0,1,3.7-.957Z" transform="translate(-41.663 -61.781)" fill="#fff"/>
      <path id="Trazado_8" data-name="Trazado 8" d="M124.3,96.322l-2.717,12.007a4.073,4.073,0,0,1-2.026,2.494,6.934,6.934,0,0,1-3.686,1.041h-5.607a6.589,6.589,0,0,1-4.087-1.243,3.624,3.624,0,0,1-1.656-3.025,3.015,3.015,0,0,1,.088-.749l2.328-10.526h5.776l-2.246,10.359a1.131,1.131,0,0,0-.083.4,1.814,1.814,0,0,0,.872,1.532,3.668,3.668,0,0,0,2.128.595c1.548,0,2.448-.6,2.711-1.8l2.384-11.079Z" transform="translate(-67.036 -61.781)" fill="#fff"/>
      <path id="Trazado_9" data-name="Trazado 9" d="M174.4,101.317l-1.525,6.818a4.147,4.147,0,0,1-1.929,2.64,6.486,6.486,0,0,1-3.709,1.09h-6.69l-1.192,5.128H153.6l4.637-20.67h10.513a6.435,6.435,0,0,1,4.012,1.258,3.728,3.728,0,0,1,1.671,3.062,4.437,4.437,0,0,1-.039.675m-5.72.118c-.011-.131-.018-.26-.018-.384a1.833,1.833,0,0,0-.871-1.524,3.413,3.413,0,0,0-2.068-.628h-2.407l-2.278,10.378h3.36c1.64,0,2.608-.615,2.859-1.844Z" transform="translate(-98.521 -61.781)" fill="#fff"/>
      <path id="Trazado_10" data-name="Trazado 10" d="M233.324,101.333l-1.617,6.872a4.169,4.169,0,0,1-2,2.593,6.819,6.819,0,0,1-3.734,1.065h-5.525a6.562,6.562,0,0,1-4.088-1.276,3.708,3.708,0,0,1-1.664-3.056,3.339,3.339,0,0,1,.084-.768l1.556-7.09a3.714,3.714,0,0,1,1.99-2.417,7.372,7.372,0,0,1,3.679-.935h5.609a6.754,6.754,0,0,1,4.079,1.223,3.619,3.619,0,0,1,1.7,3.015,3.847,3.847,0,0,1-.068.774m-5.736-.048a1.577,1.577,0,0,0-.719-1.69,3.635,3.635,0,0,0-2.245-.7c-1.537,0-2.43.6-2.68,1.792l-1.335,6.037a1.135,1.135,0,0,0-.122.409,1.752,1.752,0,0,0,.829,1.495,3.485,3.485,0,0,0,2.042.574c1.612,0,2.569-.62,2.866-1.873Z" transform="translate(-137.708 -61.781)" fill="#fff"/>
      <path id="Trazado_11" data-name="Trazado 11" d="M314.689,22.868a19.8,19.8,0,0,1-4.4-6.247L296.04,21.063a25.523,25.523,0,0,0,4.613,6.191Z" transform="translate(-189.88 -10.661)" fill="#fff"/>
      <path id="Trazado_12" data-name="Trazado 12" d="M326.776,37.539l-14.051,4.392c8.37,7.733,22.141,9.878,37.031,8.092a70,70,0,0,0,16.65-4.665c-17.477,2.647-31.631-1.084-39.63-7.819" transform="translate(-200.582 -24.077)" fill="#fff"/>
      <path id="Trazado_13" data-name="Trazado 13" d="M363.963,0c8.382,15.816,27.4,18.087,44.668,15.6A75.417,75.417,0,0,1,392,20.259C375.371,22.4,358,18.843,349.831,4.4Z" transform="translate(-224.381)" fill="#fff"/>
      <path id="Trazado_14" data-name="Trazado 14" d="M1.78,165.034l-1.039,5.09H0l1.035-5.09Z" transform="translate(0 -105.853)" fill="#fff"/>
      <path id="Trazado_15" data-name="Trazado 15" d="M7.839,165.034,6.8,170.124H6.058l1.035-5.09Z" transform="translate(-3.886 -105.853)" fill="#fff"/>
      <path id="Trazado_16" data-name="Trazado 16" d="M16.968,168.317l-.789,3.845h-.73l.084-.388a1.417,1.417,0,0,1-.527.344,1.939,1.939,0,0,1-.685.114,1.785,1.785,0,0,1-1.314-.519,1.766,1.766,0,0,1-.521-1.306,2.233,2.233,0,0,1,.169-.86,2.208,2.208,0,0,1,.488-.727,2.01,2.01,0,0,1,.69-.451,2.234,2.234,0,0,1,.833-.157,2,2,0,0,1,.85.168,1.527,1.527,0,0,1,.6.5l.11-.566Zm-1.061,1.776a1.2,1.2,0,0,0-.332-.881,1.168,1.168,0,0,0-.868-.336,1.407,1.407,0,0,0-1.05.439,1.49,1.49,0,0,0-.426,1.079,1.155,1.155,0,0,0,.343.872,1.24,1.24,0,0,0,.9.33,1.359,1.359,0,0,0,1.02-.432,1.486,1.486,0,0,0,.415-1.072" transform="translate(-8.009 -107.891)" fill="#fff"/>
      <path id="Trazado_17" data-name="Trazado 17" d="M27.925,168.38l-.092.367a2.309,2.309,0,0,1,.578-.328,1.617,1.617,0,0,1,.571-.108,1.451,1.451,0,0,1,1.011.35,1.167,1.167,0,0,1,.387.909,4.347,4.347,0,0,1-.024.439c-.016.155-.04.312-.072.47l-.356,1.748H29.21l.411-2.035a2.4,2.4,0,0,0,.048-.271,1.956,1.956,0,0,0,.015-.229.68.68,0,0,0-.205-.527.821.821,0,0,0-.576-.189,1.219,1.219,0,0,0-.883.339,1.821,1.821,0,0,0-.479.979l-.4,1.933H26.4l.819-3.846Z" transform="translate(-16.936 -107.954)" fill="#fff"/>
      <path id="Trazado_18" data-name="Trazado 18" d="M40.32,170.124l.664-3.2h-.679l.136-.647h.668l.25-1.244H42.1l-.228,1.244h.657l-.136.647h-.653l-.679,3.2Z" transform="translate(-25.852 -105.853)" fill="#fff"/>
      <path id="Trazado_19" data-name="Trazado 19" d="M52.126,168.317l-.789,3.845h-.73l.084-.388a1.417,1.417,0,0,1-.527.344,1.939,1.939,0,0,1-.685.114,1.785,1.785,0,0,1-1.314-.519,1.766,1.766,0,0,1-.521-1.306,2.233,2.233,0,0,1,.169-.86,2.208,2.208,0,0,1,.488-.727,2.01,2.01,0,0,1,.69-.451,2.234,2.234,0,0,1,.833-.157,2,2,0,0,1,.85.168,1.527,1.527,0,0,1,.6.5l.11-.566Zm-1.061,1.776a1.2,1.2,0,0,0-.332-.881,1.168,1.168,0,0,0-.868-.336,1.407,1.407,0,0,0-1.05.439,1.49,1.49,0,0,0-.426,1.079,1.155,1.155,0,0,0,.343.872,1.24,1.24,0,0,0,.9.33,1.359,1.359,0,0,0,1.02-.432,1.486,1.486,0,0,0,.415-1.072" transform="translate(-30.559 -107.891)" fill="#fff"/>
      <path id="Trazado_20" data-name="Trazado 20" d="M61.6,170.878h.723a.831.831,0,0,0,.169.521.552.552,0,0,0,.441.178.67.67,0,0,0,.45-.14.476.476,0,0,0,.163-.381q0-.318-.65-.667c-.1-.052-.169-.092-.22-.123a1.334,1.334,0,0,1-.492-.421.984.984,0,0,1-.161-.558,1.007,1.007,0,0,1,.353-.8,1.362,1.362,0,0,1,.925-.306,1.185,1.185,0,0,1,.866.3,1.15,1.15,0,0,1,.312.851h-.719v-.021a.554.554,0,0,0-.121-.393.484.484,0,0,0-.367-.128.518.518,0,0,0-.347.114.365.365,0,0,0-.134.292q0,.3.54.595l.015.007a2.681,2.681,0,0,1,.813.592.966.966,0,0,1,.171.582,1.177,1.177,0,0,1-.382.9,1.349,1.349,0,0,1-.962.359,1.453,1.453,0,0,1-1.026-.332,1.234,1.234,0,0,1-.358-.951Z" transform="translate(-39.513 -107.872)" fill="#fff"/>
      <path id="Trazado_21" data-name="Trazado 21" d="M81.211,171.81a.773.773,0,0,1,.255-.585.869.869,0,0,1,.617-.24.856.856,0,0,1,.612.242.8.8,0,0,1,0,1.169.9.9,0,0,1-1.229,0,.786.786,0,0,1-.252-.587" transform="translate(-52.089 -109.67)" fill="#fff"/>
      <path id="Trazado_22" data-name="Trazado 22" d="M96.913,170.123l1.046-5.09h.705l-.316,1.619a1.454,1.454,0,0,1,.529-.35,1.877,1.877,0,0,1,.675-.115,1.785,1.785,0,0,1,1.836,1.832,2.227,2.227,0,0,1-.169.862,2.279,2.279,0,0,1-.484.729,2.1,2.1,0,0,1-.692.451,2.194,2.194,0,0,1-.828.157,2.021,2.021,0,0,1-.855-.17,1.48,1.48,0,0,1-.6-.5l-.114.58Zm1.054-1.8a1.2,1.2,0,0,0,.334.886,1.169,1.169,0,0,0,.87.337,1.407,1.407,0,0,0,1.05-.442,1.5,1.5,0,0,0,.43-1.082,1.154,1.154,0,0,0-.345-.87,1.247,1.247,0,0,0-.9-.332,1.358,1.358,0,0,0-1.018.434,1.483,1.483,0,0,0-.417,1.07" transform="translate(-62.16 -105.852)" fill="#fff"/>
      <path id="Trazado_23" data-name="Trazado 23" d="M116.482,168.317l-.789,3.845h-.73l.084-.388a1.417,1.417,0,0,1-.527.344,1.939,1.939,0,0,1-.685.114,1.785,1.785,0,0,1-1.314-.519,1.766,1.766,0,0,1-.521-1.306,2.233,2.233,0,0,1,.169-.86,2.208,2.208,0,0,1,.488-.727,2.01,2.01,0,0,1,.69-.451,2.234,2.234,0,0,1,.833-.157,2,2,0,0,1,.85.168,1.527,1.527,0,0,1,.6.5l.11-.566Zm-1.061,1.776a1.2,1.2,0,0,0-.332-.881,1.168,1.168,0,0,0-.868-.336,1.407,1.407,0,0,0-1.05.439,1.49,1.49,0,0,0-.426,1.079,1.155,1.155,0,0,0,.343.872,1.24,1.24,0,0,0,.9.33,1.359,1.359,0,0,0,1.02-.432,1.486,1.486,0,0,0,.415-1.072" transform="translate(-71.837 -107.891)" fill="#fff"/>
      <path id="Trazado_24" data-name="Trazado 24" d="M126.539,170.124l.664-3.2h-.679l.136-.647h.668l.25-1.244h.745l-.228,1.244h.657l-.136.647h-.653l-.679,3.2Z" transform="translate(-81.152 -105.853)" fill="#fff"/>
      <path id="Trazado_25" data-name="Trazado 25" d="M137.771,170.891a2.211,2.211,0,0,1-.815,1.037,2.3,2.3,0,0,1-1.292.348,1.949,1.949,0,0,1-1.4-.517,1.756,1.756,0,0,1-.543-1.332,2.189,2.189,0,0,1,.782-1.689,2.065,2.065,0,0,1,.67-.379,2.439,2.439,0,0,1,.795-.128,1.885,1.885,0,0,1,1.4.53,1.948,1.948,0,0,1,.523,1.432c0,.056,0,.144-.015.265v.021h-3.392a1.2,1.2,0,0,0,.345.828,1.114,1.114,0,0,0,.811.308,1.522,1.522,0,0,0,.76-.177,1.444,1.444,0,0,0,.529-.547Zm-.675-1.031a1.078,1.078,0,0,0-1.174-.972,1.349,1.349,0,0,0-.815.248,1.535,1.535,0,0,0-.521.724Z" transform="translate(-85.767 -107.903)" fill="#fff"/>
      <path id="Trazado_26" data-name="Trazado 26" d="M147.3,172.187l.752-3.846h.653l-.081.367a1.83,1.83,0,0,1,.587-.346,2.076,2.076,0,0,1,.7-.112l.112,0,.068.005-.15.671a1.67,1.67,0,0,0-1.046.3,2.2,2.2,0,0,0-.51,1.19l-.367,1.769Z" transform="translate(-94.479 -107.915)" fill="#fff"/>
      <path id="Trazado_27" data-name="Trazado 27" d="M156.753,165.422h.756l-.789,3.845h-.76Zm.345-.5h-.444l.845-1.224h.7Z" transform="translate(-100.033 -104.996)" fill="#fff"/>
      <path id="Trazado_28" data-name="Trazado 28" d="M166.9,168.317l-.789,3.845h-.73l.084-.388a1.419,1.419,0,0,1-.526.344,1.941,1.941,0,0,1-.685.114,1.779,1.779,0,0,1-1.835-1.825,2.225,2.225,0,0,1,.657-1.588,2.014,2.014,0,0,1,.69-.451,2.235,2.235,0,0,1,.833-.157,1.994,1.994,0,0,1,.85.168,1.524,1.524,0,0,1,.6.5l.11-.566Zm-1.06,1.776a1.2,1.2,0,0,0-.332-.881,1.168,1.168,0,0,0-.868-.336,1.408,1.408,0,0,0-1.05.439,1.49,1.49,0,0,0-.426,1.079,1.155,1.155,0,0,0,.343.872,1.24,1.24,0,0,0,.9.33,1.359,1.359,0,0,0,1.02-.432,1.485,1.485,0,0,0,.415-1.072" transform="translate(-104.174 -107.891)" fill="#fff"/>
      <path id="Trazado_29" data-name="Trazado 29" d="M176.378,170.878h.723a.831.831,0,0,0,.169.521.552.552,0,0,0,.441.178.67.67,0,0,0,.45-.14.476.476,0,0,0,.163-.381q0-.318-.65-.667c-.1-.052-.169-.092-.22-.123a1.334,1.334,0,0,1-.492-.421.984.984,0,0,1-.161-.558,1.007,1.007,0,0,1,.353-.8,1.362,1.362,0,0,1,.925-.306,1.185,1.185,0,0,1,.866.3,1.149,1.149,0,0,1,.312.851h-.719v-.021a.554.554,0,0,0-.121-.393.484.484,0,0,0-.367-.128.518.518,0,0,0-.347.114.365.365,0,0,0-.134.292q0,.3.54.595l.015.007a2.681,2.681,0,0,1,.813.592.966.966,0,0,1,.171.582,1.179,1.179,0,0,1-.382.9,1.349,1.349,0,0,1-.962.359,1.453,1.453,0,0,1-1.026-.332,1.234,1.234,0,0,1-.358-.951Z" transform="translate(-113.129 -107.872)" fill="#fff"/>
      <path id="Trazado_30" data-name="Trazado 30" d="M195.984,171.81a.773.773,0,0,1,.255-.585.869.869,0,0,1,.617-.24.856.856,0,0,1,.612.242.8.8,0,0,1,0,1.169.9.9,0,0,1-1.229,0,.786.786,0,0,1-.252-.587" transform="translate(-125.704 -109.67)" fill="#fff"/>
      <path id="Trazado_31" data-name="Trazado 31" d="M213.641,165.034l-1.039,5.09h-.742l1.035-5.09Z" transform="translate(-135.887 -105.853)" fill="#fff"/>
      <path id="Trazado_32" data-name="Trazado 32" d="M220.969,172.35l.081-.364a2.357,2.357,0,0,1-.578.325,1.618,1.618,0,0,1-.571.108,1.451,1.451,0,0,1-1.011-.35,1.167,1.167,0,0,1-.387-.909,4.131,4.131,0,0,1,.026-.444c.017-.158.04-.316.07-.472l.364-1.741h.719l-.411,2.035c-.025.114-.042.212-.053.294a1.63,1.63,0,0,0-.017.206.675.675,0,0,0,.209.528.836.836,0,0,0,.58.189,1.218,1.218,0,0,0,.885-.339,1.827,1.827,0,0,0,.477-.979l.393-1.933h.727l-.811,3.846Z" transform="translate(-140.147 -108.078)" fill="#fff"/>
      <path id="Trazado_33" data-name="Trazado 33" d="M231.04,170.123l1.046-5.09h.705l-.316,1.619a1.454,1.454,0,0,1,.529-.35,1.877,1.877,0,0,1,.675-.115,1.786,1.786,0,0,1,1.836,1.832,2.234,2.234,0,0,1-.169.862,2.287,2.287,0,0,1-.485.729,2.1,2.1,0,0,1-.692.451,2.195,2.195,0,0,1-.828.157,2.022,2.022,0,0,1-.855-.17,1.48,1.48,0,0,1-.6-.5l-.114.58Zm1.054-1.8a1.2,1.2,0,0,0,.334.886,1.169,1.169,0,0,0,.87.337,1.407,1.407,0,0,0,1.05-.442,1.5,1.5,0,0,0,.43-1.082,1.154,1.154,0,0,0-.345-.87,1.247,1.247,0,0,0-.9-.332,1.358,1.358,0,0,0-1.018.434,1.483,1.483,0,0,0-.416,1.07" transform="translate(-148.189 -105.852)" fill="#fff"/>
      <path id="Trazado_34" data-name="Trazado 34" d="M245.606,172.187l.752-3.846h.653l-.081.367a1.831,1.831,0,0,1,.587-.346,2.076,2.076,0,0,1,.7-.112l.112,0,.068.005-.15.671a1.67,1.67,0,0,0-1.046.3,2.2,2.2,0,0,0-.51,1.19l-.367,1.769Z" transform="translate(-157.531 -107.915)" fill="#fff"/>
      <path id="Trazado_35" data-name="Trazado 35" d="M255.057,166.278h.756l-.789,3.846h-.76Zm.841-.43h-.76l.165-.814h.76Z" transform="translate(-163.085 -105.853)" fill="#fff"/>
      <path id="Trazado_36" data-name="Trazado 36" d="M264.748,170.758a2.093,2.093,0,0,1-.793,1.094,2.288,2.288,0,0,1-1.34.388,1.918,1.918,0,0,1-1.395-.524,1.8,1.8,0,0,1-.539-1.346,2.193,2.193,0,0,1,.2-.935,2.229,2.229,0,0,1,.578-.761,2.093,2.093,0,0,1,.67-.381,2.421,2.421,0,0,1,.8-.129,1.943,1.943,0,0,1,1.252.407,1.855,1.855,0,0,1,.657,1.113h-.76a1.234,1.234,0,0,0-.437-.64,1.208,1.208,0,0,0-.734-.221,1.391,1.391,0,0,0-1.042.434,1.5,1.5,0,0,0-.418,1.084,1.217,1.217,0,0,0,.332.891,1.164,1.164,0,0,0,.871.339,1.386,1.386,0,0,0,.754-.2,1.6,1.6,0,0,0,.545-.61Z" transform="translate(-167.201 -107.86)" fill="#fff"/>
      <path id="Trazado_37" data-name="Trazado 37" d="M279.165,168.317l-.789,3.845h-.73l.084-.388a1.415,1.415,0,0,1-.527.344,1.938,1.938,0,0,1-.685.114,1.786,1.786,0,0,1-1.314-.519,1.767,1.767,0,0,1-.521-1.306,2.227,2.227,0,0,1,.169-.86,2.2,2.2,0,0,1,.488-.727,2.012,2.012,0,0,1,.69-.451,2.236,2.236,0,0,1,.833-.157,2,2,0,0,1,.85.168,1.53,1.53,0,0,1,.6.5l.11-.566Zm-1.061,1.776a1.2,1.2,0,0,0-.332-.881,1.168,1.168,0,0,0-.868-.336,1.406,1.406,0,0,0-1.05.439,1.488,1.488,0,0,0-.426,1.079,1.155,1.155,0,0,0,.343.872,1.241,1.241,0,0,0,.9.33,1.36,1.36,0,0,0,1.021-.432,1.486,1.486,0,0,0,.415-1.072" transform="translate(-176.181 -107.891)" fill="#fff"/>
      <path id="Trazado_38" data-name="Trazado 38" d="M290.123,168.38l-.092.367a2.316,2.316,0,0,1,.578-.328,1.62,1.62,0,0,1,.571-.108,1.452,1.452,0,0,1,1.012.35,1.168,1.168,0,0,1,.387.909,4.361,4.361,0,0,1-.024.439c-.016.155-.04.312-.072.47l-.356,1.748h-.72l.411-2.035a2.488,2.488,0,0,0,.047-.271,1.956,1.956,0,0,0,.015-.229.679.679,0,0,0-.205-.527.82.82,0,0,0-.576-.189,1.218,1.218,0,0,0-.883.339,1.817,1.817,0,0,0-.479.979l-.4,1.933H288.6l.818-3.846Z" transform="translate(-185.11 -107.954)" fill="#fff"/>
      <path id="Trazado_39" data-name="Trazado 39" d="M302.517,170.124l.665-3.2h-.68l.136-.647h.668l.25-1.244h.746l-.228,1.244h.657l-.136.647h-.653l-.679,3.2Z" transform="translate(-194.025 -105.853)" fill="#fff"/>
      <path id="Trazado_40" data-name="Trazado 40" d="M313.75,170.891a2.212,2.212,0,0,1-.815,1.037,2.3,2.3,0,0,1-1.292.348,1.949,1.949,0,0,1-1.4-.517,1.758,1.758,0,0,1-.543-1.332,2.189,2.189,0,0,1,.782-1.689,2.062,2.062,0,0,1,.67-.379,2.438,2.438,0,0,1,.8-.128,1.884,1.884,0,0,1,1.4.53,1.948,1.948,0,0,1,.523,1.432q0,.083-.015.265v.021h-3.392a1.2,1.2,0,0,0,.345.828,1.112,1.112,0,0,0,.811.308,1.522,1.522,0,0,0,.76-.177,1.44,1.44,0,0,0,.529-.547Zm-.676-1.031a1.078,1.078,0,0,0-1.174-.972,1.349,1.349,0,0,0-.815.248,1.538,1.538,0,0,0-.521.724Z" transform="translate(-198.639 -107.903)" fill="#fff"/>
      <path id="Trazado_41" data-name="Trazado 41" d="M323.219,170.878h.723a.833.833,0,0,0,.169.521.552.552,0,0,0,.441.178.67.67,0,0,0,.45-.14.476.476,0,0,0,.163-.381q0-.318-.65-.667c-.1-.052-.169-.092-.22-.123a1.33,1.33,0,0,1-.492-.421.982.982,0,0,1-.162-.558,1.007,1.007,0,0,1,.353-.8,1.361,1.361,0,0,1,.925-.306,1.185,1.185,0,0,1,.866.3,1.148,1.148,0,0,1,.312.851h-.719v-.021a.554.554,0,0,0-.121-.393.484.484,0,0,0-.367-.128.518.518,0,0,0-.347.114.365.365,0,0,0-.134.292q0,.3.54.595l.015.007a2.684,2.684,0,0,1,.813.592.968.968,0,0,1,.17.582,1.177,1.177,0,0,1-.382.9,1.349,1.349,0,0,1-.962.359,1.453,1.453,0,0,1-1.026-.332,1.234,1.234,0,0,1-.358-.951Z" transform="translate(-207.312 -107.872)" fill="#fff"/>
      <path id="Trazado_42" data-name="Trazado 42" d="M342.824,171.81a.773.773,0,0,1,.256-.585.868.868,0,0,1,.617-.24.856.856,0,0,1,.612.242.8.8,0,0,1,0,1.169.861.861,0,0,1-.615.244.851.851,0,0,1-.614-.243.786.786,0,0,1-.253-.587" transform="translate(-219.887 -109.67)" fill="#fff"/>
      <path id="Trazado_43" data-name="Trazado 43" d="M363.55,168.317l-.789,3.845h-.73l.084-.388a1.415,1.415,0,0,1-.527.344,1.938,1.938,0,0,1-.685.114,1.786,1.786,0,0,1-1.314-.519,1.767,1.767,0,0,1-.521-1.306,2.227,2.227,0,0,1,.169-.86,2.2,2.2,0,0,1,.488-.727,2.012,2.012,0,0,1,.69-.451,2.235,2.235,0,0,1,.833-.157,2,2,0,0,1,.85.168,1.53,1.53,0,0,1,.6.5l.11-.566Zm-1.061,1.776a1.2,1.2,0,0,0-.332-.881,1.168,1.168,0,0,0-.868-.336,1.406,1.406,0,0,0-1.05.439,1.488,1.488,0,0,0-.426,1.079,1.155,1.155,0,0,0,.343.872,1.241,1.241,0,0,0,.9.33,1.36,1.36,0,0,0,1.021-.432,1.486,1.486,0,0,0,.415-1.072" transform="translate(-230.306 -107.891)" fill="#fff"/>
      <path id="Trazado_44" data-name="Trazado 44" d="M377.64,170.758a2.093,2.093,0,0,1-.793,1.094,2.288,2.288,0,0,1-1.34.388,1.918,1.918,0,0,1-1.395-.524,1.8,1.8,0,0,1-.539-1.346,2.193,2.193,0,0,1,.2-.935,2.229,2.229,0,0,1,.578-.761,2.093,2.093,0,0,1,.67-.381,2.421,2.421,0,0,1,.8-.129,1.943,1.943,0,0,1,1.252.407,1.855,1.855,0,0,1,.657,1.113h-.759a1.235,1.235,0,0,0-.437-.64,1.208,1.208,0,0,0-.734-.221,1.391,1.391,0,0,0-1.043.434,1.5,1.5,0,0,0-.418,1.084,1.217,1.217,0,0,0,.332.891,1.164,1.164,0,0,0,.871.339,1.386,1.386,0,0,0,.754-.2,1.6,1.6,0,0,0,.545-.61Z" transform="translate(-239.609 -107.86)" fill="#fff"/>
      <path id="Trazado_45" data-name="Trazado 45" d="M391.6,170.758a2.093,2.093,0,0,1-.793,1.094,2.288,2.288,0,0,1-1.34.388,1.918,1.918,0,0,1-1.395-.524,1.8,1.8,0,0,1-.539-1.346,2.193,2.193,0,0,1,.2-.935,2.228,2.228,0,0,1,.578-.761,2.093,2.093,0,0,1,.67-.381,2.421,2.421,0,0,1,.8-.129,1.943,1.943,0,0,1,1.251.407,1.855,1.855,0,0,1,.657,1.113h-.76a1.235,1.235,0,0,0-.437-.64,1.209,1.209,0,0,0-.734-.221,1.391,1.391,0,0,0-1.042.434,1.5,1.5,0,0,0-.419,1.084,1.217,1.217,0,0,0,.332.891,1.164,1.164,0,0,0,.871.339,1.386,1.386,0,0,0,.755-.2,1.6,1.6,0,0,0,.545-.61Z" transform="translate(-248.564 -107.86)" fill="#fff"/>
      <path id="Trazado_46" data-name="Trazado 46" d="M405.446,170.891a2.212,2.212,0,0,1-.815,1.037,2.3,2.3,0,0,1-1.292.348,1.949,1.949,0,0,1-1.4-.517,1.758,1.758,0,0,1-.543-1.332,2.188,2.188,0,0,1,.782-1.689,2.061,2.061,0,0,1,.67-.379,2.437,2.437,0,0,1,.8-.128,1.884,1.884,0,0,1,1.4.53,1.948,1.948,0,0,1,.523,1.432q0,.083-.015.265v.021H402.16a1.2,1.2,0,0,0,.345.828,1.112,1.112,0,0,0,.811.308,1.522,1.522,0,0,0,.76-.177,1.44,1.44,0,0,0,.529-.547Zm-.676-1.031a1.078,1.078,0,0,0-1.174-.972,1.349,1.349,0,0,0-.815.248,1.538,1.538,0,0,0-.521.724Z" transform="translate(-257.453 -107.903)" fill="#fff"/>
      <path id="Trazado_47" data-name="Trazado 47" d="M414.913,170.878h.723a.833.833,0,0,0,.169.521.552.552,0,0,0,.441.178.67.67,0,0,0,.45-.14.476.476,0,0,0,.163-.381q0-.318-.65-.667c-.1-.052-.169-.092-.22-.123a1.329,1.329,0,0,1-.492-.421.981.981,0,0,1-.162-.558,1.007,1.007,0,0,1,.352-.8,1.361,1.361,0,0,1,.925-.306,1.185,1.185,0,0,1,.866.3,1.148,1.148,0,0,1,.312.851h-.719v-.021a.554.554,0,0,0-.121-.393.484.484,0,0,0-.367-.128.518.518,0,0,0-.347.114.365.365,0,0,0-.134.292q0,.3.54.595l.015.007a2.682,2.682,0,0,1,.813.592.968.968,0,0,1,.17.582,1.177,1.177,0,0,1-.382.9,1.349,1.349,0,0,1-.962.359,1.453,1.453,0,0,1-1.026-.332,1.234,1.234,0,0,1-.358-.951Z" transform="translate(-266.125 -107.872)" fill="#fff"/>
      <path id="Trazado_48" data-name="Trazado 48" d="M425.23,170.427a2.19,2.19,0,0,1,.2-.932,2.233,2.233,0,0,1,.587-.764,1.949,1.949,0,0,1,.653-.374,2.417,2.417,0,0,1,.789-.126,1.965,1.965,0,0,1,1.408.52,1.746,1.746,0,0,1,.549,1.326,2.239,2.239,0,0,1-.661,1.59,2.061,2.061,0,0,1-.708.451,2.421,2.421,0,0,1-.881.158,1.936,1.936,0,0,1-1.393-.521,1.759,1.759,0,0,1-.545-1.328m2.2-1.532a1.354,1.354,0,0,0-1.026.432,1.534,1.534,0,0,0-.41,1.1,1.141,1.141,0,0,0,.338.849,1.182,1.182,0,0,0,.866.332,1.4,1.4,0,0,0,1.046-.44,1.5,1.5,0,0,0,.426-1.084,1.144,1.144,0,0,0-.338-.861,1.223,1.223,0,0,0-.888-.327Z" transform="translate(-272.742 -107.903)" fill="#fff"/>
      <path id="Trazado_49" data-name="Trazado 49" d="M438.792,172.187l.753-3.846h.653l-.081.367a1.831,1.831,0,0,1,.587-.346,2.075,2.075,0,0,1,.7-.112l.112,0,.068.005-.151.671a1.67,1.67,0,0,0-1.046.3,2.194,2.194,0,0,0-.51,1.19l-.367,1.769Z" transform="translate(-281.441 -107.915)" fill="#fff"/>
      <path id="Trazado_50" data-name="Trazado 50" d="M448.243,166.278H449l-.79,3.846h-.76Zm.841-.43h-.76l.165-.814h.76Z" transform="translate(-286.994 -105.853)" fill="#fff"/>
      <path id="Trazado_51" data-name="Trazado 51" d="M453.785,170.427a2.19,2.19,0,0,1,.2-.932,2.233,2.233,0,0,1,.587-.764,1.949,1.949,0,0,1,.653-.374,2.417,2.417,0,0,1,.789-.126,1.965,1.965,0,0,1,1.408.52,1.746,1.746,0,0,1,.549,1.326,2.238,2.238,0,0,1-.661,1.59,2.06,2.06,0,0,1-.708.451,2.421,2.421,0,0,1-.881.158,1.936,1.936,0,0,1-1.393-.521,1.758,1.758,0,0,1-.545-1.328m2.2-1.532a1.354,1.354,0,0,0-1.026.432,1.534,1.534,0,0,0-.41,1.1,1.142,1.142,0,0,0,.338.849,1.182,1.182,0,0,0,.866.332,1.4,1.4,0,0,0,1.046-.44,1.5,1.5,0,0,0,.426-1.084,1.144,1.144,0,0,0-.338-.861A1.223,1.223,0,0,0,456,168.9Z" transform="translate(-291.057 -107.903)" fill="#fff"/>
      <path id="Trazado_52" data-name="Trazado 52" d="M467.285,170.878h.723a.833.833,0,0,0,.169.521.552.552,0,0,0,.441.178.67.67,0,0,0,.45-.14.476.476,0,0,0,.163-.381q0-.318-.65-.667c-.1-.052-.169-.092-.22-.123a1.33,1.33,0,0,1-.492-.421.982.982,0,0,1-.162-.558,1.007,1.007,0,0,1,.353-.8,1.361,1.361,0,0,1,.925-.306,1.185,1.185,0,0,1,.866.3,1.148,1.148,0,0,1,.312.851h-.719v-.021a.554.554,0,0,0-.121-.393.484.484,0,0,0-.367-.128.519.519,0,0,0-.347.114.365.365,0,0,0-.134.292q0,.3.54.595l.015.007a2.685,2.685,0,0,1,.813.592.968.968,0,0,1,.17.582,1.177,1.177,0,0,1-.382.9,1.349,1.349,0,0,1-.962.359,1.453,1.453,0,0,1-1.026-.332,1.234,1.234,0,0,1-.358-.951Z" transform="translate(-299.716 -107.872)" fill="#fff"/>
    </g>
  </g>
</svg>
